<?xml version="1.0" encoding="utf-8"?>
<!-- Generator: Adobe Illustrator 21.1.0, SVG Export Plug-In . SVG Version: 6.00 Build 0)  -->
<svg version="1.1" xmlns="http://www.w3.org/2000/svg" xmlns:xlink="http://www.w3.org/1999/xlink" x="0px" y="0px"
	 viewBox="0 0 589 635" style="enable-background:new 0 0 589 635;" xml:space="preserve">
<style type="text/css">
	.st0{fill:#FFFFFF;}
	.st1{fill:#212120;}
</style>
<g id="white">
	<g>
		<path class="st0" d="M69,570c3.8-13.7,7.4-27.5,11.6-41.1c5.8-19.1,14-37.3,24.3-54.5c8.6-14.4,17.8-28.3,27.2-43.1
			c3.5,6.1,5.8,11.7,9.4,16.3c6.5,8.3,11.7,17.1,15.8,26.9c4.3,10.3,11.4,18.7,20.7,25.1c11.2,7.7,20.8,17.1,29.2,27.9
			c2,2.5,3.4,3.3,6.4,1.2c17-12,34.9-22.5,53.6-31.7c9.2-4.6,18.2-11,25-18.6c16.2-18.2,35.2-32.4,55.5-45.4
			c8.1-5.2,15.8-11.1,23.9-16.4c22.6-14.7,35.2-35.8,40.5-61.7c1.9-9.1,3.3-18.3,4.9-27.8c1.1,0.4,2.3,0.7,3.5,1.3
			c27,12.8,47.1,32.2,58,60.4c4.7,12.1,9.1,24.2,13.6,36.3c0,1.7,0,3.3,0,5c-2.6,8.3-5.3,16.7-7.9,25c-6,19.5-13.2,38.8-26.2,54.5
			c-17.5,21-37,40.5-55.8,60.4c-7.4,7.8-15.8,14.7-23,22.7c-6.1,6.7-10.9,14.6-16.6,21.7c-4,5-9.1,7-15.9,5
			c-14.6-4.3-136-82.8-140.5-82.3c-14.5,1.6-109.6,35.4-126.8,38.8c-3.8,0.7-7.6,1.3-10.2-2.8C69,572,69,571,69,570z"/>
	</g>
</g>
<g id="black_1_">
	<path class="st1" d="M559.1,320.9c-11.1-15.2-24.3-29.5-38.7-41.6c-29.6-25-49.3-55.6-60.3-92.6c-6.7-22.4-15.2-44.4-24.4-65.9
		c-12-28.1-27.4-51.8-46.6-70.5c0-0.1,0-0.1,0-0.2c-0.7-0.2-37-33-129-36.5c-11.9-0.5-4-0.5-35.7,2.2c-28.5,2.4-76.3,33.5-79.6,35.2
		c-10.8,5.6-36.3,42.5-36.5,60.6c-0.9,3.4-1.8,6.9-2.5,10.5c-5.3,24.6-14.7,46.6-33.7,64.1c-6.9,6.3-12.5,14.3-17.5,22.3
		C28,250,25.3,295.4,35.6,342.1c5.9,26.7,19.1,49.8,41.2,66.8c14.2,10.9,30,17.3,48.5,14.4c1.4,5.4,3.3,10.7,6.6,15.7
		c4.7,7.2,9.4,14.5,14,21.7c1.5,2.3,3.2,4.7,4.1,7.2c5.5,14.9,13.8,27.4,27,36.8c7.7,5.4,14.3,12.4,21.1,19c3.2,3.1,5.9,6.7,8.3,9.5
		c17.1-9.8,33.2-19.9,50.1-28.5c14-7.2,26.8-15.4,37.1-27.3c9.9-11.4,21.1-21.2,33.8-29.4c12.3-8,24.1-16.7,36.5-24.5
		c16-10.2,32.3-18.6,40.2-34.3c3.9,4,4.3,6,5,12c1.1,9.1,9.4,26,15,33c8,10,34.5,28.2,63.9,26.9c35.1-1.6,63.2-16.5,79.6-48.5
		C584,380.5,579.8,349.1,559.1,320.9z M338.8,363.8c-6.9,5.1-11.4,11.9-14.9,19.7c-1.1,2.4-2.9,4.9-5.1,6.3
		c-10.3,7.1-20.7,13.9-31.2,20.6c-2.6,1.7-5.7,2.8-8.6,3.9c-17.3,6.9-33.1,16.3-46.9,28.9c-2.7,2.5-5.6,4.7-8.5,6.9
		c-16.8,12.7-33.4,12-48.7-2.3c-12.9-12-40.9-55.1-51.6-74.1c-1.5-6.8-3.2-13.6-5.2-20.2c-0.9-2.8-1.6-5.7-2.3-8.5
		c-0.1-0.4-0.1-0.9-0.2-1.3c0,0,0,0-0.1,0.1c-4.5-19.3-5-38.6-0.5-57.8c3.6-15.4,1.8-29.5-1.8-44.3c-5.9-24.4-6.5-48.9,0.9-73.7
		c2.3-7.6,2.1-15.8,2.8-23.7c0.1-1.7,0.3-3.4,0.5-5.1c3.9-17.6,10.1-34.3,19.8-49.8c9.6-15.3,22.2-27.1,38.4-35.4
		c18.6-9.5,37.3-18.8,58.2-21.2c9.6-1.1,19.6-0.6,29.3,0.4c13.1,1.3,26.2,2.9,38.9,6c5.8,1.4,11.2,3.2,16.2,5.6
		c6.4,7.4,21.3,17.1,26.9,25.3c10.4,15.3,5.5,33.5,23.6,43.2c-3.2-1.3-6.4-2.6-9.6-3.9c-0.7,0.9-1.3,1.8-2,2.7
		c5.3,5.4,10.5,10.7,16.3,16.6c-3.2-1.2-5.9-2.2-8.6-3.1c-0.6,0.5-1.2,1-1.8,1.5c2.8,4.8,5.7,9.6,7.3,12.3c-0.5,4.4-1.3,6.9-1,9.1
		c1.4,9.6,3.7,19.1,4.6,28.7c0.4,4,0.6,8,0.9,12c-0.7,2.5-1.6,5-2.6,7.2c-6.1,13.9-10.2,27.8-8.4,43.5c0.9,7.6-2.2,15.7-3.9,23.4
		c-5.6,25.9-8.8,52.1-9.8,78.7C349.6,350.7,346.2,358.3,338.8,363.8z"/>
	<path class="st1" d="M189.5,352.6c-15,18.3-39.5,20.8-55.4,4.6c16.9-5.3,32.7-11.6,37-31.2c10.5,5.7,19.2,4.7,28.3,0.8
		c2.9-1.2,8,0.7,11,2.8c4.1,2.9,7.3,7.2,10.8,11c11.6,12.2,25.8,18.3,42.6,18.7c1.2,0,2.3,0.3,3.7,0.5
		C246.7,379.3,205.5,375.6,189.5,352.6z"/>
	<path class="st1" d="M320.9,223.3c-5.4,0.2-11,1.4-16.2,0.4c-21.2-4.3-41.8-2.7-62.4,3.7c-5,1.6-10.6,1.2-16.4,1.7
		c0.5-2.5,0.5-3.2,0.7-3.3c21.3-10.3,43.2-18.8,67.4-18.1c10.8,0.3,20.6,3.5,27.3,12.6C321.2,221.3,321,222.3,320.9,223.3z"/>
	<path class="st1" d="M178.6,226.9c-5.1-0.7-10.4-0.6-15.3-2.2c-11.5-3.7-22.7-7.3-35-3c-2.5,0.9-5.8-0.7-8.9-1.2
		c3-9.3,9.3-14.3,18.4-14c16.1,0.4,29.1,8.5,41.6,17.3C179.1,224.9,178.9,225.9,178.6,226.9z"/>
</g>
</svg>
